<svg width="14" height="14" viewBox="0 0 14 14" fill="none" xmlns="http://www.w3.org/2000/svg">
<path d="M6.4375 10.75H7.5625V7.5625H10.75V6.4375H7.5625V3.25H6.4375V6.4375H3.25V7.5625H6.4375V10.75ZM1.375 13.75C1.075 13.75 0.8125 13.6375 0.5875 13.4125C0.3625 13.1875 0.25 12.925 0.25 12.625V1.375C0.25 1.075 0.3625 0.8125 0.5875 0.5875C0.8125 0.3625 1.075 0.25 1.375 0.25H12.625C12.925 0.25 13.1875 0.3625 13.4125 0.5875C13.6375 0.8125 13.75 1.075 13.75 1.375V12.625C13.75 12.925 13.6375 13.1875 13.4125 13.4125C13.1875 13.6375 12.925 13.75 12.625 13.75H1.375ZM1.375 12.625H12.625V1.375H1.375V12.625ZM1.375 1.375V12.625V1.375Z" fill="white"/>
</svg>
