<svg width="20" height="18" viewBox="0 0 20 18" fill="none" xmlns="http://www.w3.org/2000/svg">
<path d="M7.20825 17.75L5.62492 15.0417L2.47909 14.3958L2.83325 11.3333L0.833252 9L2.83325 6.6875L2.47909 3.625L5.62492 2.97917L7.20825 0.25L9.99992 1.54167L12.7916 0.25L14.3958 2.97917L17.5208 3.625L17.1666 6.6875L19.1666 9L17.1666 11.3333L17.5208 14.3958L14.3958 15.0417L12.7916 17.75L9.99992 16.4583L7.20825 17.75ZM7.77075 16.1042L9.99992 15.1667L12.2916 16.1042L13.6874 14.0208L16.1249 13.3958L15.8749 10.9167L17.5624 9L15.8749 7.04167L16.1249 4.5625L13.6874 3.97917L12.2499 1.89583L9.99992 2.83333L7.70825 1.89583L6.31242 3.97917L3.87492 4.5625L4.12492 7.04167L2.43742 9L4.12492 10.9167L3.87492 13.4375L6.31242 14.0208L7.77075 16.1042ZM9.10409 11.7708L13.8333 7.08333L12.8958 6.22917L9.10409 9.97917L7.12492 7.91667L6.16659 8.85417L9.10409 11.7708Z" fill="#34B467" fill-opacity="0.6"/>
</svg>
