<svg width="18" height="22" viewBox="0 0 18 22" fill="none" xmlns="http://www.w3.org/2000/svg">
<path d="M7.75433 17.0941L13.9564 10.892L12.9002 9.83574L7.75433 14.9816L4.96475 12.192L3.9085 13.2482L7.75433 17.0941ZM1.9585 21.8337C1.52516 21.8337 1.146 21.6712 0.820996 21.3462C0.495996 21.0212 0.333496 20.642 0.333496 20.2087V1.79199C0.333496 1.35866 0.495996 0.979492 0.820996 0.654492C1.146 0.329492 1.52516 0.166992 1.9585 0.166992H11.7356L17.6668 6.09824V20.2087C17.6668 20.642 17.5043 21.0212 17.1793 21.3462C16.8543 21.6712 16.4752 21.8337 16.0418 21.8337H1.9585ZM10.9231 6.82949V1.79199H1.9585V20.2087H16.0418V6.82949H10.9231ZM1.9585 1.79199V6.82949V1.79199V20.2087V1.79199Z" fill="white"/>
</svg>
